Coordinates
version=1
nRows=16
nColumns=36
inDegrees=yes

Units are S.I. units (second, meters, Newtons, ...)
If the header above contains a line with 'inDegrees', this indicates whether rotational values are in degrees (yes) or radians (no).

endheader
time	pelvis_tilt	pelvis_list	pelvis_rotation	pelvis_tx	pelvis_ty	pelvis_tz	hip_flexion_r	hip_adduction_r	hip_rotation_r	knee_angle_r	knee_angle_r_beta	ankle_angle_r	subtalar_angle_r	mtp_angle_r	hip_flexion_l	hip_adduction_l	hip_rotation_l	knee_angle_l	knee_angle_l_beta	ankle_angle_l	subtalar_angle_l	mtp_angle_l	lumbar_extension	lumbar_bending	lumbar_rotation	arm_flex_r	arm_add_r	arm_rot_r	elbow_flex_r	pro_sup_r	arm_flex_l	arm_add_l	arm_rot_l	elbow_flex_l	pro_sup_l
      0.36000000	      2.60139528	     -0.94008022	      2.32658701	      0.25080935	      0.90891591	     -0.20545101	     -4.61657025	      6.18607135	      0.96664479	     10.89155133	      0.19009343	     11.27888773	     -9.51369375	     -6.72294778	     23.66757442	     -0.73919727	     -0.59324593	     55.90370338	      0.97570369	      3.89032947	     -4.49116548	     -6.72294778	    -13.11262022	      3.75582640	      9.98175018	     13.38184328	     -5.16174817	      3.19287814	     37.05926495	     97.72376351	      2.35034876	     -5.52326784	      8.69308195	     29.60167753	     89.66609073
      0.37000000	      2.76418799	     -0.96515195	      2.23612834	      0.26109736	      0.90846280	     -0.20487874	     -5.68255154	      6.25340150	      0.93149481	     10.61467141	      0.18526097	     11.75121920	     -9.07775641	     -6.74228024	     24.24801239	     -0.69468576	     -0.88368102	     54.02683598	      0.94294617	      4.20358431	     -5.25711861	     -6.74228024	    -13.21567119	      3.64037447	     10.05216342	     13.69067089	     -4.96073314	      4.20766747	     37.23336752	     98.16920553	      2.28790408	     -5.46734675	      7.96649341	     29.73936008	     89.74884360
      0.38000000	      2.65037654	     -1.03353807	      2.20741997	      0.27139707	      0.90751104	     -0.20438783	     -6.38482081	      6.36882086	      0.91005704	     10.44971155	      0.18238187	     11.95006612	     -8.92907735	     -6.74839446	     25.11997780	     -0.69224311	     -1.13838799	     52.14546558	      0.91011006	      4.55829396	     -5.53474055	     -6.74839446	    -12.96849062	      3.57359235	     10.08413008	     13.86299201	     -4.61576467	      4.58274347	     37.40112887	     98.31816213	      2.25453075	     -5.47721436	      7.73308485	     29.69049423	     89.76325105
      0.39000000	      2.82556563	     -1.00405439	      2.15093325	      0.28167488	      0.90689429	     -0.20389871	     -7.42822510	      6.37301269	      0.89943358	     10.25337478	      0.17895515	     12.44916239	     -8.57709230	     -6.76335744	     25.51733577	     -0.57264370	     -1.38777191	     50.01873646	      0.87299164	      4.71992363	     -6.20394315	     -6.76335744	    -13.09728251	      3.34559566	     10.09250811	     14.20051041	     -4.38524090	      5.45588265	     37.45445597	     98.65650426	      2.34870735	     -5.43835464	      7.13314796	     29.50952098	     89.77435041
      0.40000000	      2.67949993	     -1.29010341	      2.21659068	      0.29192056	      0.90561152	     -0.20354527	     -8.00800830	      6.73257140	      0.77517479	     10.22332583	      0.17843070	     12.58900709	     -8.53880418	     -6.76556802	     26.40268029	     -0.83738690	     -1.63066274	     48.12675528	      0.83997034	      4.91034886	     -6.26752616	     -6.76556802	    -12.85881967	      3.49958413	     10.04949427	     14.36084825	     -4.08110876	      5.63804749	     37.60077044	     98.71748111	      2.36624176	     -5.45082551	      7.04065264	     29.43683232	     89.76997181
      0.41000000	      2.95031047	     -1.00907981	      2.20997598	      0.30245631	      0.90510247	     -0.20335934	     -9.14396956	      6.43595705	      0.69137317	     10.15008612	      0.17715242	     13.26984476	     -7.82229876	     -6.78920401	     26.39916848	     -0.37661530	     -1.87089476	     45.53071179	      0.79466083	      4.56208184	     -7.00174954	     -6.78920401	    -13.06167092	      2.98271725	      9.82375417	     14.72308624	     -3.86309649	      6.93882892	     37.31554217	     99.16931055	      2.54489693	     -5.35758207	      6.14807285	     28.87787854	     89.71255665
      0.42000000	      2.76589231	     -0.97178850	      2.19999672	      0.31294051	      0.90374015	     -0.20299118	     -9.68221272	      6.40908909	      0.62188754	     10.20650184	      0.17813706	     13.58374540	     -7.60690222	     -6.80028400	     27.01221028	     -0.24416541	     -2.04798113	     43.20049988	      0.75399096	      4.59282776	     -6.93670902	     -6.80028400	    -12.78176128	      2.68664616	      9.72973950	     14.87284619	     -3.51719508	      7.38228467	     37.31892629	     99.33671345	      2.59710138	     -5.38763474	      5.82231961	     28.63934858	     89.68563294
      0.43000000	      2.60775056	     -0.95776434	      2.18601987	      0.32350805	      0.90235729	     -0.20271840	    -10.24836596	      6.41052070	      0.64980018	     10.28421680	      0.17949344	     13.80771539	     -7.43395462	     -6.80687988	     27.51515628	     -0.14235798	     -2.25094370	     40.78862385	      0.71189578	      4.59791107	     -6.72240667	     -6.80687988	    -12.52038485	      2.41517450	      9.63099245	     14.97237338	     -3.21745877	      7.73621709	     37.35835723	     99.43907357	      2.71447276	     -5.42657456	      5.57173678	     28.29173227	     89.63119024
      0.44000000	      2.64825904	     -0.87473190	      2.15000013	      0.33418251	      0.90119743	     -0.20244979	    -11.01897043	      6.32026061	      0.42444696	     10.40252747	      0.18155835	     14.29171037	     -7.06680457	     -6.82086409	     27.69210850	     -0.02205766	     -2.61106286	     38.21991869	      0.66706342	      4.40850420	     -6.36193624	     -6.82086409	    -12.50075275	      2.04913654	      9.56856812	     15.13919259	     -3.01141654	      8.41430894	     37.19524371	     99.61261910	      3.00051164	     -5.39321712	      5.10912894	     27.66656592	     89.50522207
      0.45000000	      2.40707623	     -0.85348171	      2.10188792	      0.34494824	      0.89959540	     -0.20225923	    -11.46566032	      6.29444247	      0.42886442	     10.55538624	      0.18422624	     14.49189245	     -6.82266398	     -6.82849836	     28.13292852	      0.07391417	     -2.83161144	     35.65727797	      0.62233690	      4.46149119	     -5.83447392	     -6.82849836	    -12.14445831	      1.72115715	      9.49065159	     15.12943565	     -2.78594543	      8.81424487	     37.17600236	     99.70308741	      3.11455103	     -5.43330032	      4.84996481	     27.29040879	     89.41770334
      0.46000000	      2.34955690	     -0.79617725	      2.00921445	      0.35584112	      0.89821673	     -0.20205672	    -12.09086182	      6.20060328	      0.16942711	     10.75501064	      0.18771035	     14.92039482	     -6.39153746	     -6.84311475	     28.28045391	      0.12655692	     -3.28773545	     33.01540470	      0.57622752	      4.55060421	     -4.86806397	     -6.84311475	    -11.99857978	      1.35518303	      9.47209489	     15.21099115	     -2.64399619	      9.50668602	     37.00054179	     99.84241139	      3.38313701	     -5.41195511	      4.39977271	     26.66549563	     89.23311431
      0.47000000	      2.00931662	     -0.80842572	      1.87512693	      0.36685702	      0.89641151	     -0.20191037	    -12.41439026	      6.17560985	      0.21168952	     10.94065127	      0.19095039	     15.00222371	     -6.15976000	     -6.84912836	     28.69464333	      0.16115669	     -3.53102234	     30.38811389	      0.53037264	      4.81886133	     -4.09514664	     -6.84912836	    -11.53026882	      1.03908857	      9.46839998	     15.12453779	     -2.46869007	      9.84777701	     36.98549083	     99.90328967	      3.46858790	     -5.46827033	      4.17667760	     26.36580671	     89.13797656
      0.48000000	      1.93439841	     -0.73929345	      1.67824662	      0.37807895	      0.89499070	     -0.20173807	    -12.98823984	      6.00369963	     -0.21095118	     11.21449263	      0.19572982	     15.54051377	     -5.21538446	     -6.87803053	     28.72014989	      0.11559049	     -4.28380529	     27.73296200	      0.48403150	      5.59295311	     -1.97242395	     -6.87803053	    -11.35336588	      0.61744873	      9.47446511	     15.17562577	     -2.42813306	     10.90986822	     36.66209860	    100.07102365	      3.66352165	     -5.41807011	      3.48835250	     25.81739127	     88.76527011
      0.49000000	      1.52878045	     -0.73151448	      1.43606191	      0.38934024	      0.89312034	     -0.20159524	    -13.20835212	      5.91504411	     -0.15323118	     11.46955522	      0.20018150	     15.50889617	     -5.09073784	     -6.88315318	     29.04455223	      0.15097545	     -4.48850266	     25.03598214	      0.43696032	      5.96802792	     -1.15292558	     -6.88315318	    -10.82255482	      0.22722660	      9.57547454	     14.99037992	     -2.31792602	     11.16189825	     36.64412889	    100.10233144	      3.70337961	     -5.49684064	      3.28887101	     25.62249900	     88.67654816
      0.50000000	      1.21919677	     -0.62200049	      1.10334577	      0.40075798	      0.89146669	     -0.20140462	    -13.51325727	      5.67262130	     -0.19329517	     11.77746948	      0.20555562	     15.50671031	     -4.89614537	     -6.88887821	     29.13554133	      0.23636481	     -4.72210337	     22.25419301	      0.38840894	      6.44787022	      0.09559935	     -6.88887821	    -10.41719373	     -0.29719920	      9.79507400	     14.79150895	     -2.26688594	     11.55503970	     36.56303953	    100.13964511	      3.83229816	     -5.53922368	      2.98856323	     25.31828329	     88.54900590
      0.51000000	      1.15666647	     -0.49942476	      0.70988903	      0.41242741	      0.89010649	     -0.20112169	    -14.05974401	      5.33689388	     -0.74744086	     12.14397115	      0.21195228	     15.96629675	     -3.64066417	     -6.91899697	     28.98147619	      0.11735861	     -5.74074446	     19.74276378	      0.34457623	      7.74156083	      3.22859782	     -6.91899697	    -10.26385569	     -0.85549169	      9.91454221	     14.79144969	     -2.32208717	     12.81492296	     36.23060518	    100.17472102	      3.93024597	     -5.49812845	      2.01824373	     25.06785245	     88.06408154
